<svg width="60" height="60" viewBox="0 0 60 60" fill="none" xmlns="http://www.w3.org/2000/svg">
<rect width="60" height="60" rx="30" fill="#5B5BFF"/>
<path d="M18.1088 14.4905C22.9266 18.1075 28.1083 25.4412 30.0111 29.3765C31.9138 25.4412 37.0956 18.1075 41.9133 14.4905C45.3895 11.8808 51.0221 9.86143 51.0221 16.287C51.0221 17.5703 50.2864 27.0672 49.8548 28.6092C48.3548 33.9694 42.889 35.3366 38.0269 34.5091C46.5256 35.9556 48.6875 40.7467 44.0184 45.5378C35.1509 54.6371 31.2733 43.2548 30.2797 40.3382C30.0976 39.8036 30.0123 39.5534 30.0111 39.7661C30.0098 39.5534 29.9246 39.8036 29.7424 40.3382C28.7488 43.2548 24.8713 54.6371 16.0037 45.5378C11.3346 40.7467 13.4965 35.9556 21.9953 34.5091C17.1331 35.3366 11.6673 33.9694 10.1673 28.6092C9.73578 27.0672 9 17.5703 9 16.287C9 9.86143 14.6326 11.8808 18.1088 14.4905Z" fill="#000C61"/>
</svg>
