<svg width="60" height="60" viewBox="0 0 60 60" fill="none" xmlns="http://www.w3.org/2000/svg">
<rect width="60" height="60" rx="30" fill="#5B5BFF"/>
<path d="M30.5 7C18.0936 7 8 17.0936 8 29.5C8 41.9064 18.0936 52 30.5 52C42.9064 52 53 41.9064 53 29.5C53 17.0936 42.9064 7 30.5 7ZM30.5 10.375C41.0824 10.375 49.625 18.9176 49.625 29.5C49.625 38.1235 43.9516 45.3878 36.125 47.7834V42.0288C36.125 39.88 34.8867 38.0372 33.0972 37.1201C34.8372 36.7872 36.4529 36.1271 37.8102 35.1946C39.1675 34.2621 40.2272 33.0841 40.9013 31.7583C41.5755 30.4325 41.8447 28.9972 41.6866 27.5715C41.5285 26.1459 40.9476 24.7709 39.9922 23.5608C40.4912 22.0248 41.0486 19.3308 39.7241 17.2107C37.1705 17.2107 35.5228 18.9611 34.7363 20.0496C33.3919 19.6079 31.9533 19.3788 30.5 19.375C29.0457 19.3763 27.6056 19.6031 26.2593 20.043C25.4709 18.954 23.8245 17.2107 21.2759 17.2107C19.7559 19.6437 20.6955 22.2601 21.199 23.3279C20.179 24.5328 19.5394 25.9176 19.3351 27.3636C19.1307 28.8096 19.3677 30.2736 20.0258 31.6303C20.6838 32.9869 21.7432 34.1957 23.1132 35.153C24.4832 36.1103 26.1229 36.7875 27.8918 37.1267C26.4224 37.884 25.3219 39.2583 24.9849 40.9258H23.5061C22.047 40.9258 21.48 40.3329 20.6914 39.3328C19.9129 38.3326 19.0758 37.6606 18.0701 37.3816C17.5278 37.3242 17.1625 37.7367 17.635 38.1023C19.2314 39.189 19.3416 40.9677 19.9817 42.1321C20.5644 43.1806 21.7584 44.125 23.1084 44.125H24.875V47.7834C17.0484 45.3878 11.375 38.1235 11.375 29.5C11.375 18.9176 19.9176 10.375 30.5 10.375Z" fill="#000C61"/>
</svg>
