<svg width="60" height="60" viewBox="0 0 60 60" fill="none" xmlns="http://www.w3.org/2000/svg">
<rect width="60" height="60" rx="30" fill="#5B5BFF"/>
<path d="M22.6026 10.2C16.1023 10.2 10.8 15.5023 10.8 22.0026V37.3974C10.8 43.8968 16.1022 49.2 22.6026 49.2H37.9974C44.497 49.2 49.8 43.897 49.8 37.3974V22.0026C49.8 15.5022 44.4968 10.2 37.9974 10.2H22.6026ZM22.6026 13.2789H37.9974C42.8326 13.2789 46.7211 17.1664 46.7211 22.0026V37.3974C46.7211 42.2324 42.8324 46.1211 37.9974 46.1211H22.6026C17.7664 46.1211 13.8789 42.2326 13.8789 37.3974V22.0026C13.8789 17.1662 17.7662 13.2789 22.6026 13.2789ZM40.5632 17.3842C39.4291 17.3842 38.5105 18.3028 38.5105 19.4368C38.5105 20.5709 39.4291 21.4895 40.5632 21.4895C41.6972 21.4895 42.6158 20.5709 42.6158 19.4368C42.6158 18.3028 41.6972 17.3842 40.5632 17.3842ZM30.3 19.4368C24.6503 19.4368 20.0368 24.0503 20.0368 29.7C20.0368 35.3497 24.6503 39.9632 30.3 39.9632C35.9497 39.9632 40.5632 35.3497 40.5632 29.7C40.5632 24.0503 35.9497 19.4368 30.3 19.4368ZM30.3 22.5158C34.2854 22.5158 37.4842 25.7146 37.4842 29.7C37.4842 33.6854 34.2854 36.8842 30.3 36.8842C26.3146 36.8842 23.1158 33.6854 23.1158 29.7C23.1158 25.7146 26.3146 22.5158 30.3 22.5158Z" fill="#000C61"/>
</svg>
