<svg width="60" height="60" viewBox="0 0 60 60" fill="none" xmlns="http://www.w3.org/2000/svg">
<rect width="60" height="60" rx="30" fill="#5B5BFF"/>
<path d="M43.8333 12H17.1667C14.8667 12 13 13.8667 13 16.1667V42.8333C13 45.1333 14.8667 47 17.1667 47H43.8333C46.1333 47 48 45.1333 48 42.8333V16.1667C48 13.8667 46.1333 12 43.8333 12ZM23.8333 25.3333V41.1667H18.8333V25.3333H23.8333ZM18.8333 20.725C18.8333 19.5583 19.8333 18.6667 21.3333 18.6667C22.8333 18.6667 23.775 19.5583 23.8333 20.725C23.8333 21.8917 22.9 22.8333 21.3333 22.8333C19.8333 22.8333 18.8333 21.8917 18.8333 20.725ZM42.1667 41.1667H37.1667C37.1667 41.1667 37.1667 33.45 37.1667 32.8333C37.1667 31.1667 36.3333 29.5 34.25 29.4667H34.1833C32.1667 29.4667 31.3333 31.1833 31.3333 32.8333C31.3333 33.5917 31.3333 41.1667 31.3333 41.1667H26.3333V25.3333H31.3333V27.4667C31.3333 27.4667 32.9417 25.3333 36.175 25.3333C39.4833 25.3333 42.1667 27.6083 42.1667 32.2167V41.1667Z" fill="#000C61"/>
</svg>
