<svg width="379" height="175" viewBox="0 0 379 175" fill="none" xmlns="http://www.w3.org/2000/svg">
<g clip-path="url(#clip0_0_1)">
<path d="M-133 63.6172L-100.558 58.3529C-67.9727 53.1459 -3.08771 42.6173 61.9396 35.4647C126.967 28.3122 191.852 24.5356 256.879 30.0288C321.906 35.5792 386.791 50.4565 452.103 59.154C517.273 67.7943 582.727 70.312 647.897 67.2221C713.209 64.1894 778.094 55.6064 843.121 43.8762C908.148 32.1459 973.033 17.2686 1038.06 23.4484C1103.09 29.6855 1167.97 56.9224 1200.56 70.5981L1233 84.2166V174.625H1200.56C1167.97 174.625 1103.09 174.625 1038.06 174.625C973.033 174.625 908.148 174.625 843.121 174.625C778.094 174.625 713.209 174.625 647.897 174.625C582.727 174.625 517.273 174.625 452.103 174.625C386.791 174.625 321.906 174.625 256.879 174.625C191.852 174.625 126.967 174.625 61.9396 174.625C-3.08771 174.625 -67.9727 174.625 -100.558 174.625H-133V63.6172Z" fill="#2D24A9"/>
<path d="M-133 69.4249L-100.558 73.2556C-67.9727 77.0291 -3.08771 84.6904 61.9396 77.6008C126.967 70.5684 191.852 48.8423 256.879 46.5553C321.906 44.2684 386.791 61.4206 452.103 72.1121C517.273 82.7465 582.727 86.9773 647.897 85.7195C713.209 84.4617 778.094 77.8295 843.121 67.9956C908.148 58.1616 973.033 45.2403 1038.06 41.2382C1103.09 37.236 1167.97 42.1529 1200.56 44.6686L1233 47.1271V174.625H1200.56C1167.97 174.625 1103.09 174.625 1038.06 174.625C973.033 174.625 908.148 174.625 843.121 174.625C778.094 174.625 713.209 174.625 647.897 174.625C582.727 174.625 517.273 174.625 452.103 174.625C386.791 174.625 321.906 174.625 256.879 174.625C191.852 174.625 126.967 174.625 61.9396 174.625C-3.08771 174.625 -67.9727 174.625 -100.558 174.625H-133V69.4249Z" fill="#251C9F"/>
<path d="M-133 41.029L-100.557 51.7624C-67.9727 62.5528 -3.08771 84.0195 61.9396 94.0107C126.967 104.002 191.852 102.517 256.879 94.9812C321.906 87.4451 386.791 73.9713 452.103 74.7135C517.273 75.4557 582.727 90.528 647.897 94.9812C713.209 99.4344 778.094 93.3827 843.121 81.85C908.148 70.3174 973.033 53.418 1038.06 45.1968C1103.09 37.0326 1167.97 37.6035 1200.56 37.8889L1233 38.1744V174.625H1200.56C1167.97 174.625 1103.09 174.625 1038.06 174.625C973.033 174.625 908.148 174.625 843.121 174.625C778.094 174.625 713.209 174.625 647.897 174.625C582.727 174.625 517.273 174.625 452.103 174.625C386.791 174.625 321.906 174.625 256.879 174.625C191.852 174.625 126.967 174.625 61.9396 174.625C-3.08771 174.625 -67.9727 174.625 -100.557 174.625H-133V41.029Z" fill="#1B1394"/>
<path d="M-133 116.243L-100.558 110.92C-67.9727 105.539 -3.08771 94.8933 61.9396 93.1762C126.967 91.4591 191.852 98.671 256.879 100.674C321.906 102.678 386.791 99.4723 452.103 98.671C517.273 97.9269 582.727 99.644 647.897 93.7486C713.209 87.7959 778.094 74.2878 843.121 75.4326C908.148 76.5773 973.033 92.3749 1038.06 92.0314C1103.09 91.6308 1167.97 75.0319 1200.56 66.7325L1233 58.4331V174.625H1200.56C1167.97 174.625 1103.09 174.625 1038.06 174.625C973.033 174.625 908.148 174.625 843.121 174.625C778.094 174.625 713.209 174.625 647.897 174.625C582.727 174.625 517.273 174.625 452.103 174.625C386.791 174.625 321.906 174.625 256.879 174.625C191.852 174.625 126.967 174.625 61.9396 174.625C-3.08771 174.625 -67.9727 174.625 -100.558 174.625H-133V116.243Z" fill="#10098A"/>
<path d="M-133 113.739L-100.558 107.248C-67.9727 100.7 -3.08771 87.719 61.9396 87.3169C126.967 86.9149 191.852 99.2069 256.879 105.525C321.906 111.844 386.791 112.188 452.103 106.157C517.273 100.126 582.727 87.719 647.897 83.009C713.209 78.2989 778.094 81.4007 843.121 85.9958C908.148 90.591 973.033 96.6796 1038.06 95.6457C1103.09 94.6118 1167.97 86.3405 1200.56 82.2623L1233 78.1266V174.625H1200.56C1167.97 174.625 1103.09 174.625 1038.06 174.625C973.033 174.625 908.148 174.625 843.121 174.625C778.094 174.625 713.209 174.625 647.897 174.625C582.727 174.625 517.273 174.625 452.103 174.625C386.791 174.625 321.906 174.625 256.879 174.625C191.852 174.625 126.967 174.625 61.9396 174.625C-3.08771 174.625 -67.9727 174.625 -100.558 174.625H-133V113.739Z" fill="#000080"/>
<path d="M-133 129.265L-100.558 126.681C-67.9727 124.097 -3.08771 118.929 61.9396 117.781C126.967 116.633 191.852 119.504 256.879 120.365C321.906 121.226 386.791 120.078 452.103 120.537C517.273 121.054 582.727 123.121 647.897 122.662C713.209 122.202 778.094 119.102 843.121 119.102C908.148 119.102 973.033 122.202 1038.06 122.662C1103.09 123.121 1167.97 121.054 1200.56 119.963L1233 118.929V174.625H1200.56C1167.97 174.625 1103.09 174.625 1038.06 174.625C973.033 174.625 908.148 174.625 843.121 174.625C778.094 174.625 713.209 174.625 647.897 174.625C582.727 174.625 517.273 174.625 452.103 174.625C386.791 174.625 321.906 174.625 256.879 174.625C191.852 174.625 126.967 174.625 61.9396 174.625C-3.08771 174.625 -67.9727 174.625 -100.558 174.625H-133V129.265Z" fill="#000478"/>
<path d="M-133 116.838L-100.558 116.38C-67.9727 115.866 -3.08771 114.95 61.9396 116.094C126.967 117.239 191.852 120.443 256.879 120.557C321.906 120.672 386.791 117.582 452.103 118.44C517.273 119.298 582.727 124.104 647.897 123.418C713.209 122.731 778.094 116.667 843.121 116.38C908.148 116.094 973.033 121.587 1038.06 126.45C1103.09 131.314 1167.97 135.547 1200.56 137.607L1233 139.724V174.625H1200.56C1167.97 174.625 1103.09 174.625 1038.06 174.625C973.033 174.625 908.148 174.625 843.121 174.625C778.094 174.625 713.209 174.625 647.897 174.625C582.727 174.625 517.273 174.625 452.103 174.625C386.791 174.625 321.906 174.625 256.879 174.625C191.852 174.625 126.967 174.625 61.9396 174.625C-3.08771 174.625 -67.9727 174.625 -100.558 174.625H-133V116.838Z" fill="#000871"/>
<path d="M-133 129.33L-100.558 131.991C-67.9727 134.595 -3.08771 139.918 61.9396 141.786C126.967 143.654 191.852 142.182 256.879 140.54C321.906 138.955 386.791 137.256 452.103 140.371C517.273 143.485 582.727 151.411 647.897 150.562C713.209 149.713 778.094 140.087 843.121 138.672C908.148 137.256 973.033 144.051 1038.06 144.617C1103.09 145.183 1167.97 139.521 1200.56 136.69L1233 133.859V174.625H1200.56C1167.97 174.625 1103.09 174.625 1038.06 174.625C973.033 174.625 908.148 174.625 843.121 174.625C778.094 174.625 713.209 174.625 647.897 174.625C582.727 174.625 517.273 174.625 452.103 174.625C386.791 174.625 321.906 174.625 256.879 174.625C191.852 174.625 126.967 174.625 61.9396 174.625C-3.08771 174.625 -67.9727 174.625 -100.558 174.625H-133V129.33Z" fill="#000A69"/>
<path d="M-133 163.874L-100.558 162.572C-67.9727 161.214 -3.08771 158.611 61.9396 154.707C126.967 150.859 191.852 145.766 256.879 147.351C321.906 148.992 386.791 157.253 452.103 160.479C517.273 163.704 582.727 161.78 647.897 158.215C713.209 154.65 778.094 149.331 843.121 149.445C908.148 149.558 973.033 154.99 1038.06 157.366C1103.09 159.743 1167.97 158.951 1200.56 158.611L1233 158.215V174.625H1200.56C1167.97 174.625 1103.09 174.625 1038.06 174.625C973.033 174.625 908.148 174.625 843.121 174.625C778.094 174.625 713.209 174.625 647.897 174.625C582.727 174.625 517.273 174.625 452.103 174.625C386.791 174.625 321.906 174.625 256.879 174.625C191.852 174.625 126.967 174.625 61.9396 174.625C-3.08771 174.625 -67.9727 174.625 -100.558 174.625H-133V163.874Z" fill="#000C61"/>
</g>
<defs>
<clipPath id="clip0_0_1">
<rect width="379" height="175" fill="white"/>
</clipPath>
</defs>
</svg>
