<svg width="129" height="79" viewBox="0 0 129 79" fill="none" xmlns="http://www.w3.org/2000/svg">
<rect width="129" height="79" fill="#1E1E1E"/>
<g clip-path="url(#clip0_0_1)">
<rect width="129" height="79" fill="white"/>
<g clip-path="url(#clip1_0_1)">
<path d="M0 5.70555L4.3 7.68055C8.6 9.65555 17.2 13.6056 25.8 14.8125C34.4 16.0194 43 14.4833 51.6 12.7717C60.2 11.0381 68.8 9.15083 77.4 7.94389C86 6.73694 94.6 6.21028 103.2 7.17583C111.8 8.11944 120.4 10.5333 124.7 11.7403L129 12.9472V0H124.7C120.4 0 111.8 0 103.2 0C94.6 0 86 0 77.4 0C68.8 0 60.2 0 51.6 0C43 0 34.4 0 25.8 0C17.2 0 8.6 0 4.3 0H0V5.70555Z" fill="#1D2592"/>
<path d="M0 23.0417L4.3 26.07C8.6 29.1203 17.2 35.1769 25.8 35.4842C34.4 35.7694 43 30.2833 51.6 31.995C60.2 33.7286 68.8 42.6381 77.4 42.9014C86 43.1647 94.6 34.7381 103.2 33.0264C111.8 31.3147 120.4 36.2742 124.7 38.7758L129 41.2556V12.5083L124.7 11.3014C120.4 10.0944 111.8 7.68055 103.2 6.73694C94.6 5.77138 86 6.29805 77.4 7.505C68.8 8.71194 60.2 10.5992 51.6 12.3328C43 14.0444 34.4 15.5806 25.8 14.3736C17.2 13.1667 8.6 9.21666 4.3 7.24166L0 5.26666V23.0417Z" fill="#0F1879"/>
<path d="M0 27.8695L4.3 31.5561C8.6 35.2647 17.2 42.6381 25.8 43.45C34.4 44.262 43 38.4686 51.6 39.7853C60.2 41.102 68.8 49.5286 77.4 49.375C86 49.2214 94.6 40.5314 103.2 39.3245C111.8 38.1175 120.4 44.3936 124.7 47.5536L129 50.6917V40.8167L124.7 38.337C120.4 35.8353 111.8 30.8758 103.2 32.5875C94.6 34.2992 86 42.7258 77.4 42.4625C68.8 42.1992 60.2 33.2897 51.6 31.5561C43 29.8445 34.4 35.3306 25.8 35.0453C17.2 34.7381 8.6 28.6814 4.3 25.6311L0 22.6028V27.8695Z" fill="#000C61"/>
<path d="M0 61.0056L4.3 60.7422C8.6 60.5008 17.2 59.9742 25.8 62.1028C34.4 64.2314 43 68.9714 51.6 71.2097C60.2 73.4481 68.8 73.1408 77.4 72.3508C86 71.5389 94.6 70.2222 103.2 68.4008C111.8 66.5575 120.4 64.2314 124.7 63.0464L129 61.8833V50.2528L124.7 47.1147C120.4 43.9547 111.8 37.6786 103.2 38.8856C94.6 40.0925 86 48.7825 77.4 48.9361C68.8 49.0897 60.2 40.6631 51.6 39.3464C43 38.0297 34.4 43.8231 25.8 43.0111C17.2 42.1992 8.6 34.8258 4.3 31.1172L0 27.4306V61.0056Z" fill="#000E55"/>
<path d="M0 79.2194H4.3C8.6 79.2194 17.2 79.2194 25.8 79.2194C34.4 79.2194 43 79.2194 51.6 79.2194C60.2 79.2194 68.8 79.2194 77.4 79.2194C86 79.2194 94.6 79.2194 103.2 79.2194C111.8 79.2194 120.4 79.2194 124.7 79.2194H129V61.4444L124.7 62.6075C120.4 63.7925 111.8 66.1186 103.2 67.9619C94.6 69.7833 86 71.1 77.4 71.9119C68.8 72.7019 60.2 73.0092 51.6 70.7708C43 68.5325 34.4 63.7925 25.8 61.6639C17.2 59.5353 8.6 60.0619 4.3 60.3033L0 60.5667V79.2194Z" fill="#000F49"/>
</g>
<path d="M28.6016 53.7773C28.3672 56.1211 27.0781 57.3906 24.7344 57.5859C23.6406 57.5859 22.6836 57.2344 21.8633 56.5312C21.082 55.7891 20.6914 54.8711 20.6914 53.7773V26.1211C20.7305 25.0273 21.1406 24.1289 21.9219 23.4258C22.7031 22.6836 23.6406 22.3125 24.7344 22.3125H49.3438C52.7812 22.4297 55.3789 23.1914 57.1367 24.5977C58.8945 25.9648 60.1641 27.5273 60.9453 29.2852C61.7266 31.043 62.1172 32.8203 62.1172 34.6172C62.1172 36.4922 61.7266 38.3086 60.9453 40.0664C60.2031 41.8242 58.9336 43.4062 57.1367 44.8125C55.3789 46.1797 53.1328 46.8438 50.3984 46.8047H35.6328C34.5391 46.8047 33.6211 46.4141 32.8789 45.6328C32.0977 44.8906 31.707 43.9727 31.707 42.8789C31.707 41.7852 32.0781 40.8672 32.8203 40.125C33.6016 39.3438 34.5391 38.9531 35.6328 38.9531H50.75C51.4922 38.9531 52.0977 38.7188 52.5664 38.25C53.0742 37.7422 53.4453 37.1758 53.6797 36.5508C53.9141 35.8867 54.0312 35.2227 54.0312 34.5586C54.0312 33.9336 53.9141 33.3086 53.6797 32.6836C53.4453 32.0195 53.0742 31.4531 52.5664 30.9844C52.0977 30.4766 51.4922 30.2031 50.75 30.1641H30.125C29.1094 30.2031 28.6016 30.7109 28.6016 31.6875V53.7773ZM79.2266 22.3125H81.9219H101.844C102.938 22.3516 103.836 22.7617 104.539 23.543C105.281 24.3242 105.652 25.2617 105.652 26.3555C105.457 28.6992 104.188 29.9688 101.844 30.1641H81.2188C79.7344 30.2422 78.5039 30.8086 77.5273 31.8633C76.5508 32.918 75.8281 34.1289 75.3594 35.4961C74.9297 36.8242 74.7148 38.1914 74.7148 39.5977C74.7148 41.0039 74.9297 42.3906 75.3594 43.7578C75.8281 45.0859 76.5508 46.2773 77.5273 47.332C78.5039 48.3867 79.7344 48.9531 81.2188 49.0312H101.844C102.938 49.0703 103.836 49.4805 104.539 50.2617C105.281 51.043 105.652 51.9805 105.652 53.0742C105.613 54.1289 105.223 55.0273 104.48 55.7695C103.777 56.4727 102.898 56.8438 101.844 56.8828H80.3398H79.2266C76.4922 56.7266 74.2266 55.6914 72.4297 53.7773C70.6719 51.8242 69.4023 49.6172 68.6211 47.1562C67.8789 44.6953 67.5078 42.1758 67.5078 39.5977C67.5078 37.0195 67.8984 34.5 68.6797 32.0391C69.4609 29.5781 70.7305 27.3906 72.4883 25.4766C74.2461 23.5234 76.4922 22.4687 79.2266 22.3125ZM105.535 39.3633C105.535 40.457 105.145 41.375 104.363 42.1172C103.621 42.8984 102.703 43.2891 101.609 43.2891H83.9141C82.8203 43.2891 81.8828 42.918 81.1016 42.1758C80.3594 41.3945 79.9883 40.457 79.9883 39.3633C79.9883 38.2695 80.3594 37.332 81.1016 36.5508C81.8828 35.8086 82.8203 35.4375 83.9141 35.4375H101.609C102.703 35.4375 103.621 35.8281 104.363 36.6094C105.145 37.3516 105.535 38.2695 105.535 39.3633Z" fill="white"/>
</g>
<defs>
<clipPath id="clip0_0_1">
<rect width="129" height="79" fill="white"/>
</clipPath>
<clipPath id="clip1_0_1">
<rect width="129" height="79" fill="white"/>
</clipPath>
</defs>
</svg>
