<svg width="100" height="100" viewBox="0 0 100 100" fill="none" xmlns="http://www.w3.org/2000/svg">
<rect width="100" height="100" rx="50" fill="white"/>
<path fill-rule="evenodd" clip-rule="evenodd" d="M54.8325 54.2777C50.007 53.7662 45.7917 51.0226 43.0929 47.0208C41.5994 47.8067 40.347 49.0891 39.5928 50.7745L27.7158 77.3155C25.8942 81.3863 27.6692 86.2664 31.6806 88.2156C35.6919 90.1647 40.4204 88.4448 42.2421 84.374L54.119 57.833C54.633 56.6843 54.8607 55.4712 54.8325 54.2777Z" fill="#702766"/>
<path fill-rule="evenodd" clip-rule="evenodd" d="M56.4733 63.237C70.1536 63.237 81.2437 51.3195 81.2437 36.6185C81.2437 21.9175 70.1536 10 56.4733 10C42.7929 10 31.7028 21.9175 31.7028 36.6185C31.7028 51.3195 42.7929 63.237 56.4733 63.237ZM56.4733 54.3642C65.5936 54.3642 72.987 46.4192 72.987 36.6185C72.987 26.8179 65.5936 18.8728 56.4733 18.8728C47.3531 18.8728 39.9597 26.8179 39.9597 36.6185C39.9597 46.4192 47.3531 54.3642 56.4733 54.3642Z" fill="#702766"/>
</svg>
