<svg width="884" height="163" viewBox="0 0 884 163" fill="none" xmlns="http://www.w3.org/2000/svg">
<g clip-path="url(#clip0_0_1)">
<path d="M0 53.2144L20.995 48.0011C42.0821 42.8444 84.0721 32.4177 126.154 25.3344C168.236 18.2511 210.226 14.5111 252.308 19.9511C294.39 25.4477 336.38 40.1811 378.647 48.7944C420.821 57.3511 463.179 59.8444 505.353 56.7844C547.62 53.7811 589.61 45.2811 631.692 33.6644C673.774 22.0477 715.764 7.31441 757.846 13.4344C799.928 19.6111 841.918 46.5844 863.005 60.1278L884 73.6144V163.148H863.005C841.918 163.148 799.928 163.148 757.846 163.148C715.764 163.148 673.774 163.148 631.692 163.148C589.61 163.148 547.62 163.148 505.353 163.148C463.179 163.148 420.821 163.148 378.647 163.148C336.38 163.148 294.39 163.148 252.308 163.148C210.226 163.148 168.236 163.148 126.154 163.148C84.0721 163.148 42.0821 163.148 20.995 163.148H0V53.2144Z" fill="#2D24A9"/>
<path d="M0 58.8811L20.995 62.6777C42.0821 66.4177 84.0721 74.0111 126.154 66.9844C168.236 60.0144 210.226 38.4811 252.308 36.2144C294.39 33.9477 336.38 50.9477 378.647 61.5444C420.821 72.0844 463.179 76.2777 505.353 75.0311C547.62 73.7844 589.61 67.2111 631.692 57.4644C673.774 47.7177 715.764 34.9111 757.846 30.9444C799.928 26.9777 841.918 31.8511 863.005 34.3444L884 36.7811V163.148H863.005C841.918 163.148 799.928 163.148 757.846 163.148C715.764 163.148 673.774 163.148 631.692 163.148C589.61 163.148 547.62 163.148 505.353 163.148C463.179 163.148 420.821 163.148 378.647 163.148C336.38 163.148 294.39 163.148 252.308 163.148C210.226 163.148 168.236 163.148 126.154 163.148C84.0721 163.148 42.0821 163.148 20.995 163.148H0V58.8811Z" fill="#251C9F"/>
<path d="M0 30.5477L20.995 41.2011C42.0821 51.9111 84.0721 73.2177 126.154 83.1344C168.236 93.0511 210.226 91.5777 252.308 84.0977C294.39 76.6177 336.38 63.2444 378.647 63.9811C420.821 64.7177 463.179 79.6777 505.353 84.0977C547.62 88.5177 589.61 82.5111 631.692 71.0644C673.774 59.6177 715.764 42.8444 757.846 34.6844C799.928 26.5811 841.918 27.1477 863.005 27.4311L884 27.7144V163.148H863.005C841.918 163.148 799.928 163.148 757.846 163.148C715.764 163.148 673.774 163.148 631.692 163.148C589.61 163.148 547.62 163.148 505.353 163.148C463.179 163.148 420.821 163.148 378.647 163.148C336.38 163.148 294.39 163.148 252.308 163.148C210.226 163.148 168.236 163.148 126.154 163.148C84.0721 163.148 42.0821 163.148 20.995 163.148H0V30.5477Z" fill="#1B1394"/>
<path d="M0 105.348L20.995 100.078C42.0821 94.751 84.0721 84.211 126.154 82.511C168.236 80.811 210.226 87.951 252.308 89.9344C294.39 91.9177 336.38 88.7444 378.647 87.951C420.821 87.2144 463.179 88.9144 505.353 83.0777C547.62 77.1844 589.61 63.8111 631.692 64.9444C673.774 66.0777 715.764 81.7177 757.846 81.3777C799.928 80.981 841.918 64.5477 863.005 56.331L884 48.1144V163.148H863.005C841.918 163.148 799.928 163.148 757.846 163.148C715.764 163.148 673.774 163.148 631.692 163.148C589.61 163.148 547.62 163.148 505.353 163.148C463.179 163.148 420.821 163.148 378.647 163.148C336.38 163.148 294.39 163.148 252.308 163.148C210.226 163.148 168.236 163.148 126.154 163.148C84.0721 163.148 42.0821 163.148 20.995 163.148H0V105.348Z" fill="#10098A"/>
<path d="M0 103.081L20.995 96.6777C42.0821 90.2177 84.0721 77.411 126.154 77.0144C168.236 76.6177 210.226 88.7444 252.308 94.9777C294.39 101.211 336.38 101.551 378.647 95.601C420.821 89.651 463.179 77.411 505.353 72.7644C547.62 68.1177 589.61 71.1777 631.692 75.711C673.774 80.2444 715.764 86.251 757.846 85.231C799.928 84.211 841.918 76.051 863.005 72.0277L884 67.9477V163.148H863.005C841.918 163.148 799.928 163.148 757.846 163.148C715.764 163.148 673.774 163.148 631.692 163.148C589.61 163.148 547.62 163.148 505.353 163.148C463.179 163.148 420.821 163.148 378.647 163.148C336.38 163.148 294.39 163.148 252.308 163.148C210.226 163.148 168.236 163.148 126.154 163.148C84.0721 163.148 42.0821 163.148 20.995 163.148H0V103.081Z" fill="#000080"/>
<path d="M0 118.381L20.995 115.831C42.0821 113.281 84.0721 108.181 126.154 107.048C168.236 105.914 210.226 108.748 252.308 109.598C294.39 110.448 336.38 109.314 378.647 109.768C420.821 110.278 463.179 112.318 505.353 111.864C547.62 111.411 589.61 108.351 631.692 108.351C673.774 108.351 715.764 111.411 757.846 111.864C799.928 112.318 841.918 110.278 863.005 109.201L884 108.181V163.148H863.005C841.918 163.148 799.928 163.148 757.846 163.148C715.764 163.148 673.774 163.148 631.692 163.148C589.61 163.148 547.62 163.148 505.353 163.148C463.179 163.148 420.821 163.148 378.647 163.148C336.38 163.148 294.39 163.148 252.308 163.148C210.226 163.148 168.236 163.148 126.154 163.148C84.0721 163.148 42.0821 163.148 20.995 163.148H0V118.381Z" fill="#000478"/>
<path d="M0 105.914L20.995 105.461C42.0821 104.951 84.0721 104.044 126.154 105.178C168.236 106.311 210.226 109.484 252.308 109.598C294.39 109.711 336.38 106.651 378.647 107.501C420.821 108.351 463.179 113.111 505.353 112.431C547.62 111.751 589.61 105.744 631.692 105.461C673.774 105.178 715.764 110.618 757.846 115.434C799.928 120.251 841.918 124.444 863.005 126.484L884 128.581V163.148H863.005C841.918 163.148 799.928 163.148 757.846 163.148C715.764 163.148 673.774 163.148 631.692 163.148C589.61 163.148 547.62 163.148 505.353 163.148C463.179 163.148 420.821 163.148 378.647 163.148C336.38 163.148 294.39 163.148 252.308 163.148C210.226 163.148 168.236 163.148 126.154 163.148C84.0721 163.148 42.0821 163.148 20.995 163.148H0V105.914Z" fill="#000871"/>
<path d="M0 117.814L20.995 120.478C42.0821 123.084 84.0721 128.411 126.154 130.281C168.236 132.151 210.226 130.678 252.308 129.034C294.39 127.448 336.38 125.748 378.647 128.864C420.821 131.981 463.179 139.914 505.353 139.064C547.62 138.214 589.61 128.581 631.692 127.164C673.774 125.748 715.764 132.548 757.846 133.114C799.928 133.681 841.918 128.014 863.005 125.181L884 122.348V163.148H863.005C841.918 163.148 799.928 163.148 757.846 163.148C715.764 163.148 673.774 163.148 631.692 163.148C589.61 163.148 547.62 163.148 505.353 163.148C463.179 163.148 420.821 163.148 378.647 163.148C336.38 163.148 294.39 163.148 252.308 163.148C210.226 163.148 168.236 163.148 126.154 163.148C84.0721 163.148 42.0821 163.148 20.995 163.148H0V117.814Z" fill="#000A69"/>
<path d="M0 152.381L20.995 151.078C42.0821 149.718 84.0721 147.111 126.154 143.201C168.236 139.348 210.226 134.248 252.308 135.834C294.39 137.478 336.38 145.751 378.647 148.981C420.821 152.211 463.179 150.284 505.353 146.714C547.62 143.144 589.61 137.818 631.692 137.931C673.774 138.044 715.764 143.484 757.846 145.864C799.928 148.244 841.918 147.451 863.005 147.111L884 146.714V163.148H863.005C841.918 163.148 799.928 163.148 757.846 163.148C715.764 163.148 673.774 163.148 631.692 163.148C589.61 163.148 547.62 163.148 505.353 163.148C463.179 163.148 420.821 163.148 378.647 163.148C336.38 163.148 294.39 163.148 252.308 163.148C210.226 163.148 168.236 163.148 126.154 163.148C84.0721 163.148 42.0821 163.148 20.995 163.148H0V152.381Z" fill="#000C61"/>
</g>
<defs>
<clipPath id="clip0_0_1">
<rect width="884" height="163" fill="white"/>
</clipPath>
</defs>
</svg>
