<svg id="visual" viewBox="0 0 960 540" width="960" height="540" xmlns="http://www.w3.org/2000/svg" xmlns:xlink="http://www.w3.org/1999/xlink" version="1.1"><path d="M0 347L22.8 337.8C45.7 328.7 91.3 310.3 137 297.8C182.7 285.3 228.3 278.7 274 288.3C319.7 298 365.3 324 411.2 339.2C457 354.3 503 358.7 548.8 353.3C594.7 348 640.3 333 686 312.5C731.7 292 777.3 266 823 276.8C868.7 287.7 914.3 335.3 937.2 359.2L960 383L960 541L937.2 541C914.3 541 868.7 541 823 541C777.3 541 731.7 541 686 541C640.3 541 594.7 541 548.8 541C503 541 457 541 411.2 541C365.3 541 319.7 541 274 541C228.3 541 182.7 541 137 541C91.3 541 45.7 541 22.8 541L0 541Z" fill="#2d24a9"></path><path d="M0 357L22.8 363.7C45.7 370.3 91.3 383.7 137 371.3C182.7 359 228.3 321 274 317C319.7 313 365.3 343 411.2 361.7C457 380.3 503 387.7 548.8 385.5C594.7 383.3 640.3 371.7 686 354.5C731.7 337.3 777.3 314.7 823 307.7C868.7 300.7 914.3 309.3 937.2 313.7L960 318L960 541L937.2 541C914.3 541 868.7 541 823 541C777.3 541 731.7 541 686 541C640.3 541 594.7 541 548.8 541C503 541 457 541 411.2 541C365.3 541 319.7 541 274 541C228.3 541 182.7 541 137 541C91.3 541 45.7 541 22.8 541L0 541Z" fill="#251c9f"></path><path d="M0 307L22.8 325.8C45.7 344.7 91.3 382.3 137 399.8C182.7 417.3 228.3 414.7 274 401.5C319.7 388.3 365.3 364.7 411.2 366C457 367.3 503 393.7 548.8 401.5C594.7 409.3 640.3 398.7 686 378.5C731.7 358.3 777.3 328.7 823 314.3C868.7 300 914.3 301 937.2 301.5L960 302L960 541L937.2 541C914.3 541 868.7 541 823 541C777.3 541 731.7 541 686 541C640.3 541 594.7 541 548.8 541C503 541 457 541 411.2 541C365.3 541 319.7 541 274 541C228.3 541 182.7 541 137 541C91.3 541 45.7 541 22.8 541L0 541Z" fill="#1b1394"></path><path d="M0 439L22.8 429.7C45.7 420.3 91.3 401.7 137 398.7C182.7 395.7 228.3 408.3 274 411.8C319.7 415.3 365.3 409.7 411.2 408.3C457 407 503 410 548.8 399.7C594.7 389.3 640.3 365.7 686 367.7C731.7 369.7 777.3 397.3 823 396.7C868.7 396 914.3 367 937.2 352.5L960 338L960 541L937.2 541C914.3 541 868.7 541 823 541C777.3 541 731.7 541 686 541C640.3 541 594.7 541 548.8 541C503 541 457 541 411.2 541C365.3 541 319.7 541 274 541C228.3 541 182.7 541 137 541C91.3 541 45.7 541 22.8 541L0 541Z" fill="#10098a"></path><path d="M0 435L22.8 423.7C45.7 412.3 91.3 389.7 137 389C182.7 388.3 228.3 409.7 274 420.7C319.7 431.7 365.3 432.3 411.2 421.8C457 411.3 503 389.7 548.8 381.5C594.7 373.3 640.3 378.7 686 386.7C731.7 394.7 777.3 405.3 823 403.5C868.7 401.7 914.3 387.3 937.2 380.2L960 373L960 541L937.2 541C914.3 541 868.7 541 823 541C777.3 541 731.7 541 686 541C640.3 541 594.7 541 548.8 541C503 541 457 541 411.2 541C365.3 541 319.7 541 274 541C228.3 541 182.7 541 137 541C91.3 541 45.7 541 22.8 541L0 541Z" fill="#000080"></path><path d="M0 462L22.8 457.5C45.7 453 91.3 444 137 442C182.7 440 228.3 445 274 446.5C319.7 448 365.3 446 411.2 446.8C457 447.7 503 451.3 548.8 450.5C594.7 449.7 640.3 444.3 686 444.3C731.7 444.3 777.3 449.7 823 450.5C868.7 451.3 914.3 447.7 937.2 445.8L960 444L960 541L937.2 541C914.3 541 868.7 541 823 541C777.3 541 731.7 541 686 541C640.3 541 594.7 541 548.8 541C503 541 457 541 411.2 541C365.3 541 319.7 541 274 541C228.3 541 182.7 541 137 541C91.3 541 45.7 541 22.8 541L0 541Z" fill="#000478"></path><path d="M0 440L22.8 439.2C45.7 438.3 91.3 436.7 137 438.7C182.7 440.7 228.3 446.3 274 446.5C319.7 446.7 365.3 441.3 411.2 442.8C457 444.3 503 452.7 548.8 451.5C594.7 450.3 640.3 439.7 686 439.2C731.7 438.7 777.3 448.3 823 456.8C868.7 465.3 914.3 472.7 937.2 476.3L960 480L960 541L937.2 541C914.3 541 868.7 541 823 541C777.3 541 731.7 541 686 541C640.3 541 594.7 541 548.8 541C503 541 457 541 411.2 541C365.3 541 319.7 541 274 541C228.3 541 182.7 541 137 541C91.3 541 45.7 541 22.8 541L0 541Z" fill="#000871"></path><path d="M0 461L22.8 465.7C45.7 470.3 91.3 479.7 137 483C182.7 486.3 228.3 483.7 274 480.8C319.7 478 365.3 475 411.2 480.5C457 486 503 500 548.8 498.5C594.7 497 640.3 480 686 477.5C731.7 475 777.3 487 823 488C868.7 489 914.3 479 937.2 474L960 469L960 541L937.2 541C914.3 541 868.7 541 823 541C777.3 541 731.7 541 686 541C640.3 541 594.7 541 548.8 541C503 541 457 541 411.2 541C365.3 541 319.7 541 274 541C228.3 541 182.7 541 137 541C91.3 541 45.7 541 22.8 541L0 541Z" fill="#000a69"></path><path d="M0 522L22.8 519.7C45.7 517.3 91.3 512.7 137 505.8C182.7 499 228.3 490 274 492.8C319.7 495.7 365.3 510.3 411.2 516C457 521.7 503 518.3 548.8 512C594.7 505.7 640.3 496.3 686 496.5C731.7 496.7 777.3 506.3 823 510.5C868.7 514.7 914.3 513.3 937.2 512.7L960 512L960 541L937.2 541C914.3 541 868.7 541 823 541C777.3 541 731.7 541 686 541C640.3 541 594.7 541 548.8 541C503 541 457 541 411.2 541C365.3 541 319.7 541 274 541C228.3 541 182.7 541 137 541C91.3 541 45.7 541 22.8 541L0 541Z" fill="#000c61"></path></svg>